<svg xmlns="http://www.w3.org/2000/svg" xmlns:xlink="http://www.w3.org/1999/xlink" width="500" zoomAndPan="magnify" viewBox="0 0 375 374.999991" height="500" preserveAspectRatio="xMidYMid meet" version="1.0"><defs><clipPath id="7a35602d91"><path d="M 14.265625 0 L 360.765625 0 L 360.765625 375 L 14.265625 375 Z M 14.265625 0 " clip-rule="nonzero"/></clipPath><clipPath id="24ee172160"><path d="M 0 0 L 21.886719 0 L 21.886719 375 L 0 375 Z M 0 0 " clip-rule="nonzero"/></clipPath><clipPath id="aad14ddddb"><path d="M 351.589844 0 L 375 0 L 375 375 L 351.589844 375 Z M 351.589844 0 " clip-rule="nonzero"/></clipPath></defs><g clip-path="url(#7a35602d91)"><path fill="#121212" d="M -186.578125 186.519531 L -186.578125 898.699219 L 525.945312 898.351562 L 1238.472656 898 L 1238.820312 186.171875 L 1239.167969 -525.660156 L -186.578125 -525.660156 Z M -185.890625 187.214844 C -185.890625 578.910156 -185.730469 738.945312 -185.535156 542.839844 C -185.339844 346.738281 -185.339844 26.257812 -185.535156 -169.335938 C -185.730469 -364.929688 -185.890625 -204.484375 -185.890625 187.214844 M 96.375 21.902344 C 96.785156 22.976562 106.40625 36.511719 117.757812 51.980469 C 177.292969 133.136719 182.425781 140.195312 215.628906 186.5625 C 226.84375 202.222656 251.382812 236.003906 270.164062 261.632812 C 288.941406 287.261719 310.4375 316.816406 317.933594 327.3125 C 325.425781 337.804688 332.011719 346.414062 332.566406 346.4375 C 333.121094 346.460938 333.597656 274.539062 333.625 186.609375 C 333.664062 66.488281 333.273438 26.492188 332.058594 25.742188 C 331.167969 25.191406 318.429688 24.441406 303.753906 24.070312 L 277.066406 23.402344 L 276.148438 51.753906 C 275.644531 67.351562 275.230469 95.914062 275.226562 115.230469 C 275.226562 134.546875 274.753906 150.320312 274.179688 150.277344 C 273.605469 150.234375 258.605469 129.734375 240.84375 104.722656 C 207.832031 58.226562 186.859375 30.925781 180.59375 26.292969 C 175.53125 22.546875 163.320312 21.230469 127.351562 20.550781 C 100.539062 20.046875 95.742188 20.253906 96.375 21.902344 M 697.179688 39.128906 C 671.078125 44.296875 656.347656 68.507812 656.347656 106.242188 C 656.347656 131.210938 662.65625 149.25 674.882812 159.269531 C 692.511719 173.714844 716.296875 176.167969 736.929688 165.671875 C 749.355469 159.351562 757.039062 149.289062 759.90625 135.582031 C 761.015625 130.273438 759.132812 129.535156 744.421875 129.507812 L 734.425781 129.488281 L 730.507812 135.324219 C 725.140625 143.316406 718.753906 146.804688 709.722656 146.671875 C 699.851562 146.53125 694.058594 142.953125 689.734375 134.332031 C 686.5 127.890625 686.261719 126.023438 686.347656 107.929688 C 686.464844 84.042969 688.710938 74.867188 696.011719 68.453125 C 701.84375 63.335938 705.871094 62.140625 714.148438 63.074219 C 721.949219 63.953125 729.324219 69.457031 731.484375 76.007812 C 733.644531 82.554688 737.753906 84.015625 750.59375 82.8125 L 760.738281 81.863281 L 759.917969 76.8125 C 758.34375 67.113281 750.757812 54.210938 743.621094 49.101562 C 730.320312 39.578125 713.34375 35.933594 697.179688 39.128906 M 572.601562 40.742188 C 553.4375 43.160156 539.914062 55.992188 533.402344 77.929688 C 530.492188 87.738281 530.410156 115.699219 533.257812 127.777344 C 538.984375 152.066406 553.304688 166.511719 576.339844 171.234375 C 593.339844 174.71875 612.628906 169.035156 624.664062 157 C 644.238281 137.429688 647.96875 91.914062 632.203125 65.019531 C 627.199219 56.476562 615.855469 46.691406 607.25 43.488281 C 599.035156 40.429688 584.3125 39.261719 572.601562 40.742188 M 971.964844 40.4375 C 958.613281 42.792969 948.800781 49.945312 943.007812 61.535156 C 937.542969 72.46875 937.222656 82.410156 942.007812 92.683594 C 947.683594 104.875 955.832031 110.03125 981.128906 117.457031 C 999.355469 122.808594 1004.671875 126.550781 1006.132812 135.050781 C 1008 145.957031 998.285156 152.902344 983.703125 151.082031 C 973.957031 149.863281 967.960938 144.925781 966.6875 137.058594 L 965.800781 131.574219 L 952.605469 131.222656 C 945.347656 131.027344 938.613281 131.386719 937.636719 132.023438 C 936.226562 132.9375 936.191406 134.734375 937.457031 140.722656 C 939.519531 150.449219 941.726562 154.65625 947.972656 160.71875 C 965.796875 178.03125 1004.160156 179.050781 1022.722656 162.710938 C 1032.039062 154.507812 1035.132812 147.746094 1035.144531 135.539062 C 1035.15625 127.511719 1034.425781 124.097656 1031.355469 117.820312 C 1024.871094 104.574219 1014.316406 97.769531 990.246094 91.328125 C 973.605469 86.875 966.691406 82.457031 966.582031 76.214844 C 966.507812 72.046875 970.28125 66.144531 974.148438 64.382812 C 983.71875 60.023438 1000.464844 64.660156 1002.101562 72.128906 C 1002.558594 74.222656 1003.175781 76.71875 1003.46875 77.675781 C 1003.847656 78.90625 1007.871094 79.414062 1017.261719 79.414062 L 1030.519531 79.414062 L 1030.492188 72.804688 C 1030.417969 57.15625 1019.621094 45.988281 1000.625 41.914062 C 991.226562 39.894531 978.683594 39.25 971.964844 40.4375 M 419.1875 41.859375 C 418.691406 42.664062 415.992188 42.882812 412.8125 42.371094 L 407.296875 41.492188 L 407.546875 86.53125 C 407.683594 111.304688 408.078125 139.890625 408.417969 150.054688 L 409.039062 168.535156 L 422.460938 168.136719 L 435.878906 167.742188 L 436.25 129.835938 C 436.453125 108.988281 437.078125 91.941406 437.640625 91.949219 C 438.203125 91.960938 440.386719 95.558594 442.496094 99.949219 C 446.828125 108.96875 468.417969 146.746094 476.46875 159.394531 L 481.78125 167.742188 L 495.867188 168.136719 C 509.511719 168.515625 509.976562 168.429688 510.800781 165.351562 C 511.265625 163.605469 511.660156 134.792969 511.667969 101.320312 L 511.6875 40.464844 L 498.472656 40.464844 C 491.207031 40.464844 485.136719 40.625 484.988281 40.8125 C 484.839844 41.003906 484.371094 58.652344 483.945312 80.03125 L 483.171875 118.898438 L 478.195312 109.242188 C 475.457031 103.929688 467.996094 90.507812 461.617188 79.414062 C 455.945312 69.558594 450.285156 59.707031 444.625 49.855469 L 439.234375 40.464844 L 429.640625 40.464844 C 424.367188 40.464844 419.660156 41.09375 419.1875 41.859375 M 771.453125 41.375 C 769.402344 41.953125 769.019531 43.765625 769.019531 52.898438 L 769.019531 63.734375 L 775.472656 64.621094 C 779.019531 65.105469 787.777344 65.503906 794.929688 65.503906 L 807.929688 65.503906 L 808.296875 116.621094 L 808.660156 167.742188 L 835.417969 168.53125 L 836.296875 164.136719 C 836.78125 161.71875 837.175781 138.65625 837.175781 112.886719 L 837.175781 66.03125 L 854.910156 66.117188 L 872.644531 66.199219 L 873.070312 57.914062 C 873.871094 42.378906 876.800781 43.6875 838.925781 42.699219 C 820.75 42.222656 798.679688 41.574219 789.882812 41.261719 C 781.085938 40.945312 772.789062 40.996094 771.453125 41.375 M 893.664062 42.980469 L 889.644531 43.472656 L 890.503906 102.824219 C 890.980469 135.46875 891.378906 163.921875 891.394531 166.050781 L 891.425781 169.925781 L 904.984375 169.53125 L 918.546875 169.132812 L 918.546875 107 C 918.542969 72.824219 918.230469 44.582031 917.851562 44.234375 C 916.867188 43.347656 898.476562 42.390625 893.664062 42.980469 M 572.273438 65.875 C 564.847656 70.082031 562.046875 75.46875 560.214844 89.097656 C 556.351562 117.808594 560.839844 136.921875 572.890625 143.050781 C 585.371094 149.398438 602.910156 145.394531 607.953125 135.050781 C 611.554688 127.671875 613.65625 110.867188 612.847656 95.964844 C 611.882812 78.144531 608.207031 70.75 597.636719 65.355469 C 590.414062 61.667969 579.296875 61.898438 572.273438 65.875 M 104.769531 144.054688 C 93.074219 171.890625 33.195312 343.207031 33.195312 348.828125 C 33.195312 354.75 38.183594 352.585938 87.65625 325.203125 C 104.75 315.742188 130.945312 301.546875 145.863281 293.660156 C 198.242188 265.964844 204.285156 262.613281 204.285156 261.234375 C 204.285156 260.46875 201.355469 256.414062 197.773438 252.222656 L 191.265625 244.605469 L 166.589844 245.601562 C 140.203125 246.671875 134.058594 246.089844 132.050781 242.339844 C 131.140625 240.636719 133.339844 232.59375 139.855469 213.816406 L 148.929688 187.660156 L 144.960938 183.039062 C 142.78125 180.496094 135.359375 171.652344 128.476562 163.382812 C 121.589844 155.117188 113.960938 146.144531 111.523438 143.441406 L 107.089844 138.53125 Z M 469.628906 221.640625 C 466.183594 234.613281 462.777344 247.597656 459.40625 260.585938 C 456.484375 271.871094 453.695312 281.105469 453.207031 281.105469 C 452.71875 281.105469 451.53125 277.585938 450.570312 273.285156 C 449.605469 268.980469 445.808594 255.269531 442.128906 242.808594 C 438.445312 230.347656 434.699219 216.621094 433.804688 212.300781 L 432.175781 204.449219 L 418.726562 205.402344 C 411.332031 205.929688 405.050781 206.558594 404.769531 206.800781 C 404.488281 207.046875 409.121094 225.585938 415.0625 248 C 421.003906 270.414062 428.683594 299.394531 432.121094 312.402344 C 435.558594 325.40625 439.066406 336.554688 439.910156 337.171875 C 441.757812 338.519531 466.019531 337.054688 467.582031 335.5 C 468.191406 334.894531 471.175781 322.566406 474.21875 308.101562 C 480.53125 278.101562 487.386719 252.988281 488.417969 256.066406 C 490.855469 263.324219 496.945312 286.738281 501.976562 308.230469 C 505.203125 322 508.472656 334.050781 509.242188 335.003906 C 510.1875 336.179688 515.023438 336.742188 524.199219 336.742188 L 537.761719 336.742188 L 538.691406 330.832031 C 539.570312 325.242188 543.199219 310.09375 561.226562 236.789062 C 565.433594 219.683594 568.585938 205.394531 568.230469 205.039062 C 567.875 204.6875 561.664062 204.039062 554.429688 203.609375 L 541.277344 202.824219 L 539.160156 211.710938 C 538 216.597656 534.199219 231.054688 530.722656 243.832031 C 527.242188 256.609375 523.960938 270.066406 523.429688 273.738281 C 522.898438 277.40625 522.136719 280.96875 521.738281 281.652344 C 521.339844 282.335938 517.347656 268.253906 512.867188 250.355469 C 508.386719 232.457031 503.769531 214.53125 502.601562 210.511719 L 500.484375 203.210938 L 474.539062 203.210938 Z M 610.320312 205.769531 C 594.632812 210.945312 585.25 219.976562 578.246094 236.640625 C 563.667969 271.335938 574.808594 317.359375 600.992188 330.625 C 623.941406 342.257812 647.550781 339.859375 665.277344 324.09375 C 684.503906 307 690.101562 262.390625 676.691406 233.101562 C 672.078125 223.027344 663.671875 214.277344 653.222656 208.675781 C 645.375 204.46875 643.238281 203.976562 631.3125 203.609375 C 621.351562 203.304688 616.183594 203.835938 610.320312 205.769531 M 810.746094 267.109375 C 810.746094 321.402344 811.050781 331.382812 812.730469 332.027344 C 813.824219 332.449219 819.929688 332.898438 826.292969 333.027344 L 837.871094 333.265625 L 838.261719 316.109375 L 838.65625 298.949219 L 844.21875 291.417969 C 847.277344 287.277344 850.324219 283.886719 850.988281 283.886719 C 851.648438 283.886719 858.859375 295.152344 867.003906 308.925781 L 881.820312 333.960938 L 895.582031 333.960938 C 903.148438 333.960938 909.722656 333.347656 910.1875 332.59375 C 910.652344 331.84375 908.605469 327.617188 905.640625 323.207031 C 898.773438 312.992188 873.003906 269.546875 869.753906 262.703125 C 867.5625 258.089844 867.519531 257.25 869.367188 255.054688 C 871.375 252.664062 896.378906 224.214844 907.191406 212.011719 L 912.523438 205.992188 L 878.035156 205.992188 L 858.734375 229.640625 C 848.121094 242.644531 839.085938 253.285156 838.65625 253.285156 C 838.222656 253.285156 837.871094 242.589844 837.871094 229.515625 L 837.871094 205.746094 L 831.601562 205.351562 C 828.152344 205.132812 822.050781 204.503906 818.039062 203.953125 L 810.746094 202.949219 Z M 944.195312 205.015625 C 932.71875 208.28125 925.480469 214.570312 919.859375 226.160156 C 913.375 239.539062 916.453125 254.957031 927.816406 266.023438 C 935.308594 273.324219 942.710938 276.566406 962.5 281.210938 C 972.363281 283.527344 976.394531 285.183594 979.347656 288.136719 C 984.96875 293.757812 984.675781 300.429688 978.515625 307.152344 C 974.082031 311.988281 973.226562 312.324219 964.019531 312.84375 C 955.820312 313.308594 953.34375 312.894531 948.703125 310.289062 C 943.203125 307.195312 940.648438 303.808594 939.816406 298.492188 C 939.417969 295.964844 938.148438 295.671875 925.832031 295.3125 L 912.289062 294.914062 L 912.300781 300.179688 C 912.320312 307.488281 917.773438 318.472656 924.171875 324.09375 C 927.128906 326.683594 933.640625 330.75 938.652344 333.121094 C 947.039062 337.097656 948.910156 337.4375 962.363281 337.4375 C 975.234375 337.4375 977.894531 337.003906 984.785156 333.773438 C 995.101562 328.9375 1003.117188 321.507812 1007.492188 312.734375 C 1016.503906 294.644531 1008.449219 270.949219 990.097656 261.589844 C 987.167969 260.09375 977.578125 257.027344 968.785156 254.777344 C 946.542969 249.082031 941.867188 245.554688 943.683594 235.855469 C 945.414062 226.625 954.828125 223.195312 968.210938 226.914062 C 974.003906 228.523438 979.054688 234.007812 979.054688 238.695312 C 979.054688 242.339844 983.222656 243.5625 995.574219 243.527344 C 1006.710938 243.496094 1007.519531 242.707031 1005.597656 233.738281 C 1002.765625 220.53125 995.433594 212.671875 980.492188 206.816406 C 972.367188 203.632812 952.515625 202.648438 944.195312 205.015625 M 701.84375 269.238281 C 701.386719 304.40625 701.269531 333.441406 701.589844 333.761719 C 701.910156 334.082031 708.136719 334.65625 715.425781 335.039062 L 728.679688 335.730469 L 728.6875 324.066406 C 728.691406 317.652344 729.097656 305.359375 729.59375 296.753906 L 730.496094 281.105469 L 744.179688 281.105469 L 756.902344 307.617188 L 769.621094 334.128906 L 782.539062 333.765625 C 794.847656 333.421875 795.414062 333.269531 794.570312 330.554688 C 794.082031 328.984375 788.445312 317.222656 782.046875 304.417969 C 775.644531 291.613281 770.410156 280.84375 770.410156 280.488281 C 770.410156 280.136719 772.757812 278.734375 775.625 277.375 C 783.816406 273.492188 791.867188 264.570312 793.980469 257.039062 C 798.234375 241.832031 792.828125 223.195312 781.695312 214.699219 C 772.222656 207.464844 764.964844 206.152344 732.027344 205.699219 L 702.683594 205.296875 Z M 728.679688 232.210938 C 728.679688 235.15625 729.085938 242.355469 729.578125 248.207031 L 730.480469 258.847656 L 743.535156 258.847656 C 751.671875 258.847656 758.371094 258.105469 761.320312 256.871094 C 767.332031 254.359375 770.988281 247.644531 769.917969 241.074219 C 768.226562 230.640625 760.785156 226.855469 741.9375 226.855469 L 728.679688 226.855469 Z M 616.039062 230.605469 C 605.195312 236.226562 601.429688 247.085938 601.414062 272.757812 C 601.40625 290.234375 601.648438 291.960938 604.882812 297.671875 C 610.109375 306.894531 614.402344 309.4375 625.816406 310.082031 C 631.640625 310.414062 637.199219 309.941406 639.691406 308.910156 C 649.8125 304.71875 656.355469 291.09375 656.339844 274.246094 C 656.324219 254.269531 651.453125 239.367188 642.78125 232.75 C 636.398438 227.886719 623.316406 226.835938 616.039062 230.605469 " fill-opacity="1" fill-rule="evenodd"/></g><g clip-path="url(#24ee172160)"><path fill="#121212" d="M 0 0 L 21.886719 0 L 21.886719 374.96875 L 0 374.96875 Z M 0 0 " fill-opacity="1" fill-rule="nonzero"/></g><g clip-path="url(#aad14ddddb)"><path fill="#121212" d="M 351.589844 0 L 375 0 L 375 375.019531 L 351.589844 375.019531 Z M 351.589844 0 " fill-opacity="1" fill-rule="nonzero"/></g></svg>